# xmcd
#
# Track frame offsets: 
#        150
#        11500
#        22070
#        35710
#        46452
#        60212
#        70650
#        81850
#        93507
#        104130
#        115947
#        126532
#        136105
#        148045
#        157042
#        165687
#        172547
#        184202
#        192960
#        208050
#
# Disc length: 2936 seconds
#
# Revision: 2
# Processed by: cddbd v1.5.2PL0 Copyright (c) Steve Scherf et al.
# Submitted via: ExactAudioCopyFreeDBPlugin 1.0
#
DISCID=1d0b7614
DTITLE=Willie Nelson and Waylon Jennings - 20 Golden Hits
DYEAR=1900
DGENRE=Country
TTITLE0=Dream Baby
TTITLE1=Lorena
TTITLE2=Everything But You
TTITLE3=Burning Memories
TTITLE4=A Moment Isn't Very Long
TTITLE5=White Lightnin'
TTITLE6=Big Mamou
TTITLE7=Some Other Time
TTITLE8=Money
TTITLE9=End of Understanding
TTITLE10=Blame It On The Time
TTITLE11=Building Heartaches
TTITLE12=Crying
TTITLE13=Mean Old Greyhound Bus
TTITLE14=Abilene
TTITLE15=It's So Easy
TTITLE16=Is There Something On Your Mind
TTITLE17=Love's Gonna Live Here
TTITLE18=Face of a Fighter
TTITLE19=Don't Think Twice
EXTD=
EXTT0=
EXTT1=
EXTT2=
EXTT3=
EXTT4=
EXTT5=
EXTT6=
EXTT7=
EXTT8=
EXTT9=
EXTT10=
EXTT11=
EXTT12=
EXTT13=
EXTT14=
EXTT15=
EXTT16=
EXTT17=
EXTT18=
EXTT19=
PLAYORDER=
